<svg width="126" height="172" fill="none" xmlns="http://www.w3.org/2000/svg"><path d="M67.735 15.556c-3.03-5.165-10.101-2.152-13.258 0-.947 0-4.735 0-5.681 5.534-.947 5.534 7.575 10.145 11.363 11.067 3.788.923 1.894 4.612-1.894 4.612-3.03 0-6.313 1.23-7.576 1.844-1.515 2.952-25.883 15.986-37.878 22.135L2.394 62.593.5 63.515v2.767h3.788c.316-.615 1.326-1.845 2.84-1.845 1.516 0 1.263 1.23.948 1.845l-1.894 2.767.947.922.947-.922 7.575-5.534c0-.922 36.932-16.601 38.826-15.679 1.894.922 9.47 11.068 5.682 16.601-3.03 4.427-5.682 2.46-6.629.922-17.992-5.533-22.727 7.379-22.727 11.068 0 2.951 3.157 7.993 4.735 10.145h4.735l3.788 3.69h4.734l.947.921 7.576 18.446v11.067c-2.84 4.612-2.84 9.223-3.788 10.146-.757.737.316 6.456.947 9.222v10.146l-5.681 2.766v1.845l4.734 5.534v3.689c0 6.456.947 5.533 1.894 5.533s3.788-6.456 3.788-8.3c0-1.476 1.263-15.371 1.894-22.135.316-.922.947-2.951.947-3.689s.631-.922.947-.922l6.629 16.601v8.3l.947.923v9.222h.947c1.515 2.214 3.788.923 4.735 0v-14.756l-2.841-6.456-.947-17.523-2.841-7.379v-13.834c2.272-.738 3.472-10.76 3.788-15.679h.947l5.681 1.845 1.894-1.845 2.841.922h1.894l1.894-2.766c1.263.307 3.599.553 2.841-.923-.758-1.475 1.578-3.689 2.841-4.611h2.84v-5.534c0-1.475-1.262-2.46-1.893-2.767l-4.735-.922-.947-1.844-8.523-.923-.947-.922h-4.734c-.947-1.845 2.84-11.99 5.681-14.756 2.273-2.214 1.579-8.916.947-11.99 18.94-7.379 36.301-30.128 42.614-40.58V3.565l.947-.922V.8l-1.894.922V.8c-2.273 0-4.103 4.304-4.735 6.456-3.788 10.33-17.992 20.905-24.621 24.901-21.78 9.223-19.886 6.456-23.674 2.767-3.788-3.689.947-8.3 2.84-8.3 1.516 0 1.263-1.845.948-2.767l-.947-.923-.947-.922v-1.844l-.947-.923h-.947l-2.841-3.689z" stroke="#fff"/></svg>